<?xml version="1.0" encoding="UTF-8"?><svg width="83.3438mm" height="83.3438mm" viewBox="0 0 315 315" xmlns="http://www.w3.org/2000/svg" xmlns:xlink="http://www.w3.org/1999/xlink"><g fill="none" stroke="black" stroke-width="1" fill-rule="evenodd" stroke-linecap="square" stroke-linejoin="bevel"><g clip-path="none" fill="#ffffff" fill-opacity="1" opacity="1" stroke="none" stroke-opacity="0" transform="matrix(1,0,0,1,0,0)"><path d="M0,0 L315.07,0 L315.07,315 L0,315 L0,0 z" fill-rule="evenodd" vector-effect="none"/></g><defs><clipPath id="clip3"><path d="M-112,-164 L203.07,-164 L203.07,151 L-112,151 L-112,-164 z"/></clipPath></defs><g clip-path="url(#clip3)" fill="#ffffff" fill-opacity="1" opacity="1" stroke="none" stroke-opacity="0" transform="matrix(1,0,0,1,112,164)"><path d="M0,0 L30,0 L30,30 L0,30 L0,0 z" fill-rule="evenodd" vector-effect="none"/></g><defs><clipPath id="clip7"><path d="M0,0 L31,0 L31,31 L0,31 L0,0 z"/></clipPath></defs><g clip-path="url(#clip7)" fill="none" opacity="1" stroke="none" stroke-opacity="0" transform="matrix(1,0,0,1,112.117,164)"><path d="M0,0 L31,0 L31,31 L0,31 L0,0 z" fill-rule="evenodd" vector-effect="none"/></g><defs><clipPath id="clip17"><path d="M-1,-1 L32,-1 L32,32 L-1,32 L-1,-1 z"/></clipPath></defs><g clip-path="url(#clip17)" fill="#000000" fill-opacity="1" opacity="1" stroke="none" stroke-opacity="0" transform="matrix(1,0,0,1,112.117,164)"><path d="M15.7188,17.5938 L14.8438,17.5938 L14.8438,12 C14.6354,12.1979 14.3594,12.3984 14.0156,12.6016 C13.6719,12.8047 13.3646,12.9531 13.0938,13.0469 L13.0938,12.2031 C13.5833,11.974 14.013,11.6953 14.3828,11.3672 C14.7526,11.0391 15.0104,10.7188 15.1562,10.4062 L15.7188,10.4062 L15.7188,17.5938 z" fill-rule="nonzero" vector-effect="none"/></g><defs><clipPath id="clip34"><path d="M-112.5,-164.5 L202.57,-164.5 L202.57,150.5 L-112.5,150.5 L-112.5,-164.5 z"/></clipPath></defs><g clip-path="url(#clip34)" fill="none" opacity="1" stroke="#000000" stroke-linecap="butt" stroke-linejoin="miter" stroke-miterlimit="2" stroke-opacity="1" stroke-width="1" transform="matrix(1,0,0,1,112.5,164.5)"><path d="M0,0 L30,0 L30,30 L0,30 L0,0 z" fill-rule="evenodd" vector-effect="none"/></g><defs><clipPath id="clip37"><path d="M-112,-219 L203.07,-219 L203.07,96 L-112,96 L-112,-219 z"/></clipPath></defs><g clip-path="url(#clip37)" fill="#ffffff" fill-opacity="1" opacity="1" stroke="none" stroke-opacity="0" transform="matrix(1,0,0,1,112,219)"><path d="M0,0 L30,0 L30,30 L0,30 L0,0 z" fill-rule="evenodd" vector-effect="none"/></g><defs><clipPath id="clip41"><path d="M0,0 L31,0 L31,31 L0,31 L0,0 z"/></clipPath></defs><g clip-path="url(#clip41)" fill="none" opacity="1" stroke="none" stroke-opacity="0" transform="matrix(1,0,0,1,112.117,219)"><path d="M0,0 L31,0 L31,31 L0,31 L0,0 z" fill-rule="evenodd" vector-effect="none"/></g><defs><clipPath id="clip51"><path d="M-1,-1 L32,-1 L32,32 L-1,32 L-1,-1 z"/></clipPath></defs><g clip-path="url(#clip51)" fill="#000000" fill-opacity="1" opacity="1" stroke="none" stroke-opacity="0" transform="matrix(1,0,0,1,112.117,219)"><path d="M12.4219,14.0625 C12.4219,13.2188 12.5078,12.5391 12.6797,12.0234 C12.8516,11.5078 13.1094,11.1094 13.4531,10.8281 C13.7969,10.5469 14.2292,10.4062 14.75,10.4062 C15.1354,10.4062 15.4714,10.4844 15.7578,10.6406 C16.0443,10.7969 16.2839,11.0208 16.4766,11.3125 C16.6693,11.6042 16.8177,11.9583 16.9219,12.375 C17.026,12.7917 17.0781,13.3542 17.0781,14.0625 C17.0781,14.9062 16.9922,15.5859 16.8203,16.1016 C16.6484,16.6172 16.3906,17.0156 16.0469,17.2969 C15.7031,17.5781 15.2708,17.7188 14.75,17.7188 C14.0625,17.7188 13.5208,17.4688 13.125,16.9688 C12.6562,16.375 12.4219,15.4062 12.4219,14.0625 M13.3125,14.0625 C13.3125,15.2396 13.4505,16.0234 13.7266,16.4141 C14.0026,16.8047 14.3438,17 14.75,17 C15.1562,17 15.4974,16.8047 15.7734,16.4141 C16.0495,16.0234 16.1875,15.2396 16.1875,14.0625 C16.1875,12.8854 16.0495,12.1042 15.7734,11.7188 C15.4974,11.3333 15.151,11.1406 14.7344,11.1406 C14.3385,11.1406 14.0156,11.3073 13.7656,11.6406 C13.4635,12.0781 13.3125,12.8854 13.3125,14.0625" fill-rule="nonzero" vector-effect="none"/></g><defs><clipPath id="clip68"><path d="M-112.5,-219.5 L202.57,-219.5 L202.57,95.5 L-112.5,95.5 L-112.5,-219.5 z"/></clipPath></defs><g clip-path="url(#clip68)" fill="none" opacity="1" stroke="#000000" stroke-linecap="butt" stroke-linejoin="miter" stroke-miterlimit="2" stroke-opacity="1" stroke-width="1" transform="matrix(1,0,0,1,112.5,219.5)"><path d="M0,0 L30,0 L30,30 L0,30 L0,0 z" fill-rule="evenodd" vector-effect="none"/></g><defs><clipPath id="clip71"><path d="M-112,-274 L203.07,-274 L203.07,41 L-112,41 L-112,-274 z"/></clipPath></defs><g clip-path="url(#clip71)" fill="#ffffff" fill-opacity="1" opacity="1" stroke="none" stroke-opacity="0" transform="matrix(1,0,0,1,112,274)"><path d="M0,0 L30,0 L30,30 L0,30 L0,0 z" fill-rule="evenodd" vector-effect="none"/></g><defs><clipPath id="clip75"><path d="M0,0 L31,0 L31,31 L0,31 L0,0 z"/></clipPath></defs><g clip-path="url(#clip75)" fill="none" opacity="1" stroke="none" stroke-opacity="0" transform="matrix(1,0,0,1,112.117,274)"><path d="M0,0 L31,0 L31,31 L0,31 L0,0 z" fill-rule="evenodd" vector-effect="none"/></g><defs><clipPath id="clip85"><path d="M-1,-1 L32,-1 L32,32 L-1,32 L-1,-1 z"/></clipPath></defs><g clip-path="url(#clip85)" fill="#000000" fill-opacity="1" opacity="1" stroke="none" stroke-opacity="0" transform="matrix(1,0,0,1,112.117,274)"><path d="M15.7188,17.5938 L14.8438,17.5938 L14.8438,12 C14.6354,12.1979 14.3594,12.3984 14.0156,12.6016 C13.6719,12.8047 13.3646,12.9531 13.0938,13.0469 L13.0938,12.2031 C13.5833,11.974 14.013,11.6953 14.3828,11.3672 C14.7526,11.0391 15.0104,10.7188 15.1562,10.4062 L15.7188,10.4062 L15.7188,17.5938 z" fill-rule="nonzero" vector-effect="none"/></g><defs><clipPath id="clip102"><path d="M-112.5,-274.5 L202.57,-274.5 L202.57,40.5 L-112.5,40.5 L-112.5,-274.5 z"/></clipPath></defs><g clip-path="url(#clip102)" fill="none" opacity="1" stroke="#000000" stroke-linecap="butt" stroke-linejoin="miter" stroke-miterlimit="2" stroke-opacity="1" stroke-width="1" transform="matrix(1,0,0,1,112.5,274.5)"><path d="M0,0 L30,0 L30,30 L0,30 L0,0 z" fill-rule="evenodd" vector-effect="none"/></g><defs><clipPath id="clip105"><path d="M-172,-274 L143.07,-274 L143.07,41 L-172,41 L-172,-274 z"/></clipPath></defs><g clip-path="url(#clip105)" fill="#ffffff" fill-opacity="1" opacity="1" stroke="none" stroke-opacity="0" transform="matrix(1,0,0,1,172,274)"><path d="M0,0 L30,0 L30,30 L0,30 L0,0 z" fill-rule="evenodd" vector-effect="none"/></g><defs><clipPath id="clip109"><path d="M0,0 L31,0 L31,31 L0,31 L0,0 z"/></clipPath></defs><g clip-path="url(#clip109)" fill="none" opacity="1" stroke="none" stroke-opacity="0" transform="matrix(1,0,0,1,172.117,274)"><path d="M0,0 L31,0 L31,31 L0,31 L0,0 z" fill-rule="evenodd" vector-effect="none"/></g><defs><clipPath id="clip119"><path d="M-1,-1 L32,-1 L32,32 L-1,32 L-1,-1 z"/></clipPath></defs><g clip-path="url(#clip119)" fill="#000000" fill-opacity="1" opacity="1" stroke="none" stroke-opacity="0" transform="matrix(1,0,0,1,172.117,274)"><path d="M12.4219,14.0625 C12.4219,13.2188 12.5078,12.5391 12.6797,12.0234 C12.8516,11.5078 13.1094,11.1094 13.4531,10.8281 C13.7969,10.5469 14.2292,10.4062 14.75,10.4062 C15.1354,10.4062 15.4714,10.4844 15.7578,10.6406 C16.0443,10.7969 16.2839,11.0208 16.4766,11.3125 C16.6693,11.6042 16.8177,11.9583 16.9219,12.375 C17.026,12.7917 17.0781,13.3542 17.0781,14.0625 C17.0781,14.9062 16.9922,15.5859 16.8203,16.1016 C16.6484,16.6172 16.3906,17.0156 16.0469,17.2969 C15.7031,17.5781 15.2708,17.7188 14.75,17.7188 C14.0625,17.7188 13.5208,17.4688 13.125,16.9688 C12.6562,16.375 12.4219,15.4062 12.4219,14.0625 M13.3125,14.0625 C13.3125,15.2396 13.4505,16.0234 13.7266,16.4141 C14.0026,16.8047 14.3438,17 14.75,17 C15.1562,17 15.4974,16.8047 15.7734,16.4141 C16.0495,16.0234 16.1875,15.2396 16.1875,14.0625 C16.1875,12.8854 16.0495,12.1042 15.7734,11.7188 C15.4974,11.3333 15.151,11.1406 14.7344,11.1406 C14.3385,11.1406 14.0156,11.3073 13.7656,11.6406 C13.4635,12.0781 13.3125,12.8854 13.3125,14.0625" fill-rule="nonzero" vector-effect="none"/></g><defs><clipPath id="clip136"><path d="M-172.5,-274.5 L142.57,-274.5 L142.57,40.5 L-172.5,40.5 L-172.5,-274.5 z"/></clipPath></defs><g clip-path="url(#clip136)" fill="none" opacity="1" stroke="#000000" stroke-linecap="butt" stroke-linejoin="miter" stroke-miterlimit="2" stroke-opacity="1" stroke-width="1" transform="matrix(1,0,0,1,172.5,274.5)"><path d="M0,0 L30,0 L30,30 L0,30 L0,0 z" fill-rule="evenodd" vector-effect="none"/></g><defs><clipPath id="clip139"><path d="M-172,-219 L143.07,-219 L143.07,96 L-172,96 L-172,-219 z"/></clipPath></defs><g clip-path="url(#clip139)" fill="#ffffff" fill-opacity="1" opacity="1" stroke="none" stroke-opacity="0" transform="matrix(1,0,0,1,172,219)"><path d="M0,0 L30,0 L30,30 L0,30 L0,0 z" fill-rule="evenodd" vector-effect="none"/></g><defs><clipPath id="clip143"><path d="M0,0 L31,0 L31,31 L0,31 L0,0 z"/></clipPath></defs><g clip-path="url(#clip143)" fill="none" opacity="1" stroke="none" stroke-opacity="0" transform="matrix(1,0,0,1,172.117,219)"><path d="M0,0 L31,0 L31,31 L0,31 L0,0 z" fill-rule="evenodd" vector-effect="none"/></g><defs><clipPath id="clip153"><path d="M0,0 L30,0 L30,30 L0,30 L0,0 z"/></clipPath></defs><g clip-path="url(#clip153)" fill="#000000" fill-opacity="1" opacity="1" stroke="none" stroke-opacity="0" transform="matrix(1,0,0,1,172.117,219)"><path d="M15.7188,17.5938 L14.8438,17.5938 L14.8438,12 C14.6354,12.1979 14.3594,12.3984 14.0156,12.6016 C13.6719,12.8047 13.3646,12.9531 13.0938,13.0469 L13.0938,12.2031 C13.5833,11.974 14.013,11.6953 14.3828,11.3672 C14.7526,11.0391 15.0104,10.7188 15.1562,10.4062 L15.7188,10.4062 L15.7188,17.5938 z" fill-rule="nonzero" vector-effect="none"/></g><defs><clipPath id="clip170"><path d="M-172.5,-219.5 L142.57,-219.5 L142.57,95.5 L-172.5,95.5 L-172.5,-219.5 z"/></clipPath></defs><g clip-path="url(#clip170)" fill="none" opacity="1" stroke="#000000" stroke-linecap="butt" stroke-linejoin="miter" stroke-miterlimit="2" stroke-opacity="1" stroke-width="1" transform="matrix(1,0,0,1,172.5,219.5)"><path d="M0,0 L30,0 L30,30 L0,30 L0,0 z" fill-rule="evenodd" vector-effect="none"/></g><defs><clipPath id="clip173"><path d="M-172,-164 L143.07,-164 L143.07,151 L-172,151 L-172,-164 z"/></clipPath></defs><g clip-path="url(#clip173)" fill="#ffffff" fill-opacity="1" opacity="1" stroke="none" stroke-opacity="0" transform="matrix(1,0,0,1,172,164)"><path d="M0,0 L30,0 L30,30 L0,30 L0,0 z" fill-rule="evenodd" vector-effect="none"/></g><defs><clipPath id="clip177"><path d="M0,0 L31,0 L31,31 L0,31 L0,0 z"/></clipPath></defs><g clip-path="url(#clip177)" fill="none" opacity="1" stroke="none" stroke-opacity="0" transform="matrix(1,0,0,1,172.117,164)"><path d="M0,0 L31,0 L31,31 L0,31 L0,0 z" fill-rule="evenodd" vector-effect="none"/></g><defs><clipPath id="clip187"><path d="M-1,-1 L32,-1 L32,32 L-1,32 L-1,-1 z"/></clipPath></defs><g clip-path="url(#clip187)" fill="#000000" fill-opacity="1" opacity="1" stroke="none" stroke-opacity="0" transform="matrix(1,0,0,1,172.117,164)"><path d="M12.4219,14.0625 C12.4219,13.2188 12.5078,12.5391 12.6797,12.0234 C12.8516,11.5078 13.1094,11.1094 13.4531,10.8281 C13.7969,10.5469 14.2292,10.4062 14.75,10.4062 C15.1354,10.4062 15.4714,10.4844 15.7578,10.6406 C16.0443,10.7969 16.2839,11.0208 16.4766,11.3125 C16.6693,11.6042 16.8177,11.9583 16.9219,12.375 C17.026,12.7917 17.0781,13.3542 17.0781,14.0625 C17.0781,14.9062 16.9922,15.5859 16.8203,16.1016 C16.6484,16.6172 16.3906,17.0156 16.0469,17.2969 C15.7031,17.5781 15.2708,17.7188 14.75,17.7188 C14.0625,17.7188 13.5208,17.4688 13.125,16.9688 C12.6562,16.375 12.4219,15.4062 12.4219,14.0625 M13.3125,14.0625 C13.3125,15.2396 13.4505,16.0234 13.7266,16.4141 C14.0026,16.8047 14.3438,17 14.75,17 C15.1562,17 15.4974,16.8047 15.7734,16.4141 C16.0495,16.0234 16.1875,15.2396 16.1875,14.0625 C16.1875,12.8854 16.0495,12.1042 15.7734,11.7188 C15.4974,11.3333 15.151,11.1406 14.7344,11.1406 C14.3385,11.1406 14.0156,11.3073 13.7656,11.6406 C13.4635,12.0781 13.3125,12.8854 13.3125,14.0625" fill-rule="nonzero" vector-effect="none"/></g><defs><clipPath id="clip204"><path d="M-172.5,-164.5 L142.57,-164.5 L142.57,150.5 L-172.5,150.5 L-172.5,-164.5 z"/></clipPath></defs><g clip-path="url(#clip204)" fill="none" opacity="1" stroke="#000000" stroke-linecap="butt" stroke-linejoin="miter" stroke-miterlimit="2" stroke-opacity="1" stroke-width="1" transform="matrix(1,0,0,1,172.5,164.5)"><path d="M0,0 L30,0 L30,30 L0,30 L0,0 z" fill-rule="evenodd" vector-effect="none"/></g><defs><clipPath id="clip207"><path d="M-77,-99 L238.07,-99 L238.07,216 L-77,216 L-77,-99 z"/></clipPath></defs><g clip-path="url(#clip207)" fill="#ffffff" fill-opacity="1" opacity="1" stroke="none" stroke-opacity="0" transform="matrix(1,0,0,1,77,99)"><path d="M0,0 L30,0 L30,30 L0,30 L0,0 z" fill-rule="evenodd" vector-effect="none"/></g><defs><clipPath id="clip211"><path d="M0,0 L31,0 L31,31 L0,31 L0,0 z"/></clipPath></defs><g clip-path="url(#clip211)" fill="none" opacity="1" stroke="none" stroke-opacity="0" transform="matrix(1,0,0,1,77.1172,99)"><path d="M0,0 L31,0 L31,31 L0,31 L0,0 z" fill-rule="evenodd" vector-effect="none"/></g><defs><clipPath id="clip221"><path d="M-1,-1 L32,-1 L32,32 L-1,32 L-1,-1 z"/></clipPath></defs><g clip-path="url(#clip221)" fill="#000000" fill-opacity="1" opacity="1" stroke="none" stroke-opacity="0" transform="matrix(1,0,0,1,77.1172,99)"><path d="M7.92188,14.0625 C7.92188,13.2188 8.00781,12.5391 8.17969,12.0234 C8.35156,11.5078 8.60938,11.1094 8.95312,10.8281 C9.29688,10.5469 9.72917,10.4062 10.25,10.4062 C10.6354,10.4062 10.9714,10.4844 11.2578,10.6406 C11.5443,10.7969 11.7839,11.0208 11.9766,11.3125 C12.1693,11.6042 12.3177,11.9583 12.4219,12.375 C12.526,12.7917 12.5781,13.3542 12.5781,14.0625 C12.5781,14.9062 12.4922,15.5859 12.3203,16.1016 C12.1484,16.6172 11.8906,17.0156 11.5469,17.2969 C11.2031,17.5781 10.7708,17.7188 10.25,17.7188 C9.5625,17.7188 9.02083,17.4688 8.625,16.9688 C8.15625,16.375 7.92188,15.4062 7.92188,14.0625 M8.8125,14.0625 C8.8125,15.2396 8.95052,16.0234 9.22656,16.4141 C9.5026,16.8047 9.84375,17 10.25,17 C10.6562,17 10.9974,16.8047 11.2734,16.4141 C11.5495,16.0234 11.6875,15.2396 11.6875,14.0625 C11.6875,12.8854 11.5495,12.1042 11.2734,11.7188 C10.9974,11.3333 10.651,11.1406 10.2344,11.1406 C9.83854,11.1406 9.51562,11.3073 9.26562,11.6406 C8.96354,12.0781 8.8125,12.8854 8.8125,14.0625 M14.4062,17.5938 L14.4062,16.5938 L15.4062,16.5938 L15.4062,17.5938 L14.4062,17.5938 M16.9219,15.7188 L17.8438,15.6406 C17.9062,16.0885 18.0625,16.4271 18.3125,16.6562 C18.5625,16.8854 18.8646,17 19.2188,17 C19.6354,17 19.9922,16.8385 20.2891,16.5156 C20.5859,16.1927 20.7344,15.7708 20.7344,15.25 C20.7344,14.75 20.5938,14.3542 20.3125,14.0625 C20.0312,13.7708 19.6615,13.625 19.2031,13.625 C18.9219,13.625 18.6667,13.6901 18.4375,13.8203 C18.2083,13.9505 18.026,14.1146 17.8906,14.3125 L17.0781,14.2031 L17.7656,10.5312 L21.3281,10.5312 L21.3281,11.375 L18.4688,11.375 L18.0781,13.2969 C18.5156,12.9948 18.9688,12.8438 19.4375,12.8438 C20.0625,12.8438 20.5885,13.0599 21.0156,13.4922 C21.4427,13.9245 21.6562,14.4844 21.6562,15.1719 C21.6562,15.8177 21.4688,16.375 21.0938,16.8438 C20.6354,17.4271 20.0104,17.7188 19.2188,17.7188 C18.5625,17.7188 18.0286,17.5365 17.6172,17.1719 C17.2057,16.8073 16.974,16.3229 16.9219,15.7188" fill-rule="nonzero" vector-effect="none"/></g><defs><clipPath id="clip238"><path d="M-77.5,-99.5 L237.57,-99.5 L237.57,215.5 L-77.5,215.5 L-77.5,-99.5 z"/></clipPath></defs><g clip-path="url(#clip238)" fill="none" opacity="1" stroke="#000000" stroke-linecap="butt" stroke-linejoin="miter" stroke-miterlimit="2" stroke-opacity="1" stroke-width="1" transform="matrix(1,0,0,1,77.5,99.5)"><path d="M0,0 L30,0 L30,30 L0,30 L0,0 z" fill-rule="evenodd" vector-effect="none"/></g><defs><clipPath id="clip241"><path d="M-202,-99 L113.07,-99 L113.07,216 L-202,216 L-202,-99 z"/></clipPath></defs><g clip-path="url(#clip241)" fill="#ffffff" fill-opacity="1" opacity="1" stroke="none" stroke-opacity="0" transform="matrix(1,0,0,1,202,99)"><path d="M0,0 L30,0 L30,30 L0,30 L0,0 z" fill-rule="evenodd" vector-effect="none"/></g><defs><clipPath id="clip245"><path d="M0,0 L31,0 L31,31 L0,31 L0,0 z"/></clipPath></defs><g clip-path="url(#clip245)" fill="none" opacity="1" stroke="none" stroke-opacity="0" transform="matrix(1,0,0,1,202.117,99)"><path d="M0,0 L31,0 L31,31 L0,31 L0,0 z" fill-rule="evenodd" vector-effect="none"/></g><defs><clipPath id="clip255"><path d="M-1,-1 L32,-1 L32,32 L-1,32 L-1,-1 z"/></clipPath></defs><g clip-path="url(#clip255)" fill="#000000" fill-opacity="1" opacity="1" stroke="none" stroke-opacity="0" transform="matrix(1,0,0,1,202.117,99)"><path d="M4.92188,14.0625 C4.92188,13.2188 5.00781,12.5391 5.17969,12.0234 C5.35156,11.5078 5.60938,11.1094 5.95312,10.8281 C6.29688,10.5469 6.72917,10.4062 7.25,10.4062 C7.63542,10.4062 7.97135,10.4844 8.25781,10.6406 C8.54427,10.7969 8.78385,11.0208 8.97656,11.3125 C9.16927,11.6042 9.31771,11.9583 9.42188,12.375 C9.52604,12.7917 9.57812,13.3542 9.57812,14.0625 C9.57812,14.9062 9.49219,15.5859 9.32031,16.1016 C9.14844,16.6172 8.89062,17.0156 8.54688,17.2969 C8.20312,17.5781 7.77083,17.7188 7.25,17.7188 C6.5625,17.7188 6.02083,17.4688 5.625,16.9688 C5.15625,16.375 4.92188,15.4062 4.92188,14.0625 M5.8125,14.0625 C5.8125,15.2396 5.95052,16.0234 6.22656,16.4141 C6.5026,16.8047 6.84375,17 7.25,17 C7.65625,17 7.9974,16.8047 8.27344,16.4141 C8.54948,16.0234 8.6875,15.2396 8.6875,14.0625 C8.6875,12.8854 8.54948,12.1042 8.27344,11.7188 C7.9974,11.3333 7.65104,11.1406 7.23438,11.1406 C6.83854,11.1406 6.51562,11.3073 6.26562,11.6406 C5.96354,12.0781 5.8125,12.8854 5.8125,14.0625 M11.4062,17.5938 L11.4062,16.5938 L12.4062,16.5938 L12.4062,17.5938 L11.4062,17.5938 M16.7344,17.5938 L16.7344,15.875 L13.625,15.875 L13.625,15.0781 L16.8906,10.4375 L17.6094,10.4375 L17.6094,15.0781 L18.5781,15.0781 L18.5781,15.875 L17.6094,15.875 L17.6094,17.5938 L16.7344,17.5938 M16.7344,15.0781 L16.7344,11.8438 L14.4844,15.0781 L16.7344,15.0781 M19.9219,15.7188 L20.8438,15.6406 C20.9062,16.0885 21.0625,16.4271 21.3125,16.6562 C21.5625,16.8854 21.8646,17 22.2188,17 C22.6354,17 22.9922,16.8385 23.2891,16.5156 C23.5859,16.1927 23.7344,15.7708 23.7344,15.25 C23.7344,14.75 23.5938,14.3542 23.3125,14.0625 C23.0312,13.7708 22.6615,13.625 22.2031,13.625 C21.9219,13.625 21.6667,13.6901 21.4375,13.8203 C21.2083,13.9505 21.026,14.1146 20.8906,14.3125 L20.0781,14.2031 L20.7656,10.5312 L24.3281,10.5312 L24.3281,11.375 L21.4688,11.375 L21.0781,13.2969 C21.5156,12.9948 21.9688,12.8438 22.4375,12.8438 C23.0625,12.8438 23.5885,13.0599 24.0156,13.4922 C24.4427,13.9245 24.6562,14.4844 24.6562,15.1719 C24.6562,15.8177 24.4688,16.375 24.0938,16.8438 C23.6354,17.4271 23.0104,17.7188 22.2188,17.7188 C21.5625,17.7188 21.0286,17.5365 20.6172,17.1719 C20.2057,16.8073 19.974,16.3229 19.9219,15.7188" fill-rule="nonzero" vector-effect="none"/></g><defs><clipPath id="clip272"><path d="M-202.5,-99.5 L112.57,-99.5 L112.57,215.5 L-202.5,215.5 L-202.5,-99.5 z"/></clipPath></defs><g clip-path="url(#clip272)" fill="none" opacity="1" stroke="#000000" stroke-linecap="butt" stroke-linejoin="miter" stroke-miterlimit="2" stroke-opacity="1" stroke-width="1" transform="matrix(1,0,0,1,202.5,99.5)"><path d="M0,0 L30,0 L30,30 L0,30 L0,0 z" fill-rule="evenodd" vector-effect="none"/></g><defs><clipPath id="clip275"><path d="M-272,-172 L43.0703,-172 L43.0703,143 L-272,143 L-272,-172 z"/></clipPath></defs><g clip-path="url(#clip275)" fill="#ffffff" fill-opacity="1" opacity="1" stroke="none" stroke-opacity="0" transform="matrix(1,0,0,1,272,172)"><path d="M7,0 L23,0 C26.866,0 30,3.13401 30,7 C30,10.866 26.866,14 23,14 L7,14 C3.13401,14 0,10.866 0,7 C0,3.13401 3.13401,0 7,0 z" fill-rule="nonzero" vector-effect="none"/></g><defs><clipPath id="clip279"><path d="M-15,-7 L15,-7 L15,7 L-15,7 L-15,-7 z"/></clipPath></defs><g clip-path="url(#clip279)" fill="none" opacity="1" stroke="#000000" stroke-linecap="butt" stroke-linejoin="miter" stroke-miterlimit="2" stroke-opacity="1" stroke-width="1" transform="matrix(1,0,0,1,287,179)"><text fill="#000000" fill-opacity="1" font-family="Arial" font-size="10" font-style="normal" font-weight="400" stroke="none" textLength="5.54688" x="-2.76563" xml:space="preserve" y="3.5">1</text></g><defs><clipPath id="clip284"><path d="M-272.5,-172.5 L42.5703,-172.5 L42.5703,142.5 L-272.5,142.5 L-272.5,-172.5 z"/></clipPath></defs><g clip-path="url(#clip284)" fill="none" opacity="1" stroke="#000000" stroke-linecap="butt" stroke-linejoin="miter" stroke-miterlimit="2" stroke-opacity="1" stroke-width="1" transform="matrix(1,0,0,1,272.5,172.5)"><path d="M7,0 L23,0 C26.866,0 30,3.13401 30,7 C30,10.866 26.866,14 23,14 L7,14 C3.13401,14 0,10.866 0,7 C0,3.13401 3.13401,0 7,0 z" fill-rule="nonzero" vector-effect="none"/></g><defs><clipPath id="clip290"><path d="M0,0 L50,0 L50,15 L0,15 L0,0 z"/></clipPath></defs><g clip-path="url(#clip290)" fill="none" opacity="1" stroke="#000000" stroke-linecap="square" stroke-linejoin="bevel" stroke-opacity="1" stroke-width="1" transform="matrix(1,0,0,1,262,188)"><text fill="#000000" fill-opacity="1" font-family="Arial" font-size="10" font-style="normal" font-weight="400" stroke="none" textLength="48.2344" x="1" xml:space="preserve" y="11">RBL Offset</text></g><defs><clipPath id="clip298"><path d="M-272,-227 L43.0703,-227 L43.0703,88 L-272,88 L-272,-227 z"/></clipPath></defs><g clip-path="url(#clip298)" fill="#ffffff" fill-opacity="1" opacity="1" stroke="none" stroke-opacity="0" transform="matrix(1,0,0,1,272,227)"><path d="M7,0 L23,0 C26.866,0 30,3.13401 30,7 C30,10.866 26.866,14 23,14 L7,14 C3.13401,14 0,10.866 0,7 C0,3.13401 3.13401,0 7,0 z" fill-rule="nonzero" vector-effect="none"/></g><defs><clipPath id="clip302"><path d="M-15,-7 L15,-7 L15,7 L-15,7 L-15,-7 z"/></clipPath></defs><g clip-path="url(#clip302)" fill="none" opacity="1" stroke="#000000" stroke-linecap="butt" stroke-linejoin="miter" stroke-miterlimit="2" stroke-opacity="1" stroke-width="1" transform="matrix(1,0,0,1,287,234)"><text fill="#000000" fill-opacity="1" font-family="Arial" font-size="10" font-style="normal" font-weight="400" stroke="none" textLength="5.54688" x="-2.76563" xml:space="preserve" y="3.5">2</text></g><defs><clipPath id="clip307"><path d="M-272.5,-227.5 L42.5703,-227.5 L42.5703,87.5 L-272.5,87.5 L-272.5,-227.5 z"/></clipPath></defs><g clip-path="url(#clip307)" fill="none" opacity="1" stroke="#000000" stroke-linecap="butt" stroke-linejoin="miter" stroke-miterlimit="2" stroke-opacity="1" stroke-width="1" transform="matrix(1,0,0,1,272.5,227.5)"><path d="M7,0 L23,0 C26.866,0 30,3.13401 30,7 C30,10.866 26.866,14 23,14 L7,14 C3.13401,14 0,10.866 0,7 C0,3.13401 3.13401,0 7,0 z" fill-rule="nonzero" vector-effect="none"/></g><defs><clipPath id="clip313"><path d="M0,0 L52,0 L52,15 L0,15 L0,0 z"/></clipPath></defs><g clip-path="url(#clip313)" fill="none" opacity="1" stroke="#000000" stroke-linecap="square" stroke-linejoin="bevel" stroke-opacity="1" stroke-width="1" transform="matrix(1,0,0,1,261.164,243)"><text fill="#000000" fill-opacity="1" font-family="Arial" font-size="10" font-style="normal" font-weight="400" stroke="none" textLength="49.9063" x="1" xml:space="preserve" y="11">RML Offset</text></g><defs><clipPath id="clip321"><path d="M-272,-282 L43.0703,-282 L43.0703,33 L-272,33 L-272,-282 z"/></clipPath></defs><g clip-path="url(#clip321)" fill="#ffffff" fill-opacity="1" opacity="1" stroke="none" stroke-opacity="0" transform="matrix(1,0,0,1,272,282)"><path d="M7,0 L23,0 C26.866,0 30,3.13401 30,7 C30,10.866 26.866,14 23,14 L7,14 C3.13401,14 0,10.866 0,7 C0,3.13401 3.13401,0 7,0 z" fill-rule="nonzero" vector-effect="none"/></g><defs><clipPath id="clip325"><path d="M-15,-7 L15,-7 L15,7 L-15,7 L-15,-7 z"/></clipPath></defs><g clip-path="url(#clip325)" fill="none" opacity="1" stroke="#000000" stroke-linecap="butt" stroke-linejoin="miter" stroke-miterlimit="2" stroke-opacity="1" stroke-width="1" transform="matrix(1,0,0,1,287,289)"><text fill="#000000" fill-opacity="1" font-family="Arial" font-size="10" font-style="normal" font-weight="400" stroke="none" textLength="5.54688" x="-2.76563" xml:space="preserve" y="3.5">3</text></g><defs><clipPath id="clip330"><path d="M-272.5,-282.5 L42.5703,-282.5 L42.5703,32.5 L-272.5,32.5 L-272.5,-282.5 z"/></clipPath></defs><g clip-path="url(#clip330)" fill="none" opacity="1" stroke="#000000" stroke-linecap="butt" stroke-linejoin="miter" stroke-miterlimit="2" stroke-opacity="1" stroke-width="1" transform="matrix(1,0,0,1,272.5,282.5)"><path d="M7,0 L23,0 C26.866,0 30,3.13401 30,7 C30,10.866 26.866,14 23,14 L7,14 C3.13401,14 0,10.866 0,7 C0,3.13401 3.13401,0 7,0 z" fill-rule="nonzero" vector-effect="none"/></g><defs><clipPath id="clip336"><path d="M0,0 L50,0 L50,15 L0,15 L0,0 z"/></clipPath></defs><g clip-path="url(#clip336)" fill="none" opacity="1" stroke="#000000" stroke-linecap="square" stroke-linejoin="bevel" stroke-opacity="1" stroke-width="1" transform="matrix(1,0,0,1,262.281,298)"><text fill="#000000" fill-opacity="1" font-family="Arial" font-size="10" font-style="normal" font-weight="400" stroke="none" textLength="47.6719" x="1" xml:space="preserve" y="11">RFL Offset</text></g><defs><clipPath id="clip344"><path d="M-210,-19 L105.07,-19 L105.07,296 L-210,296 L-210,-19 z"/></clipPath></defs><g clip-path="url(#clip344)" fill="#ffffff" fill-opacity="1" opacity="1" stroke="none" stroke-opacity="0" transform="matrix(1,0,0,1,210,19)"><path d="M2.00026e-16,23 L6.57227e-16,7 C7.67698e-16,3.13401 3.13401,0 7,0 C10.866,0 14,3.13401 14,7 L14,23 C14,26.866 10.866,30 7,30 C3.13401,30 8.95545e-17,26.866 2.00026e-16,23 z" fill-rule="nonzero" vector-effect="none"/></g><defs><clipPath id="clip348"><path d="M-7,-15 L7,-15 L7,15 L-7,15 L-7,-15 z"/></clipPath></defs><g clip-path="url(#clip348)" fill="none" opacity="1" stroke="#000000" stroke-linecap="butt" stroke-linejoin="miter" stroke-miterlimit="2" stroke-opacity="1" stroke-width="1" transform="matrix(1,0,0,1,217,34)"><text fill="#000000" fill-opacity="1" font-family="Arial" font-size="10" font-style="normal" font-weight="400" stroke="none" textLength="5.54688" x="-2.76563" xml:space="preserve" y="3.5">5</text></g><defs><clipPath id="clip353"><path d="M-210.5,-19.5 L104.57,-19.5 L104.57,295.5 L-210.5,295.5 L-210.5,-19.5 z"/></clipPath></defs><g clip-path="url(#clip353)" fill="none" opacity="1" stroke="#000000" stroke-linecap="butt" stroke-linejoin="miter" stroke-miterlimit="2" stroke-opacity="1" stroke-width="1" transform="matrix(1,0,0,1,210.5,19.5)"><path d="M2.00026e-16,23 L6.57227e-16,7 C7.67698e-16,3.13401 3.13401,0 7,0 C10.866,0 14,3.13401 14,7 L14,23 C14,26.866 10.866,30 7,30 C3.13401,30 8.95545e-17,26.866 2.00026e-16,23 z" fill-rule="nonzero" vector-effect="none"/></g><defs><clipPath id="clip359"><path d="M0,0 L50,0 L50,15 L0,15 L0,0 z"/></clipPath></defs><g clip-path="url(#clip359)" fill="none" opacity="1" stroke="#000000" stroke-linecap="square" stroke-linejoin="bevel" stroke-opacity="1" stroke-width="1" transform="matrix(1,0,0,1,191.977,2)"><text fill="#000000" fill-opacity="1" font-family="Arial" font-size="10" font-style="normal" font-weight="400" stroke="none" textLength="48.2813" x="1" xml:space="preserve" y="11">Duty Cycle</text></g><defs><clipPath id="clip367"><path d="M-85,-19 L230.07,-19 L230.07,296 L-85,296 L-85,-19 z"/></clipPath></defs><g clip-path="url(#clip367)" fill="#ffffff" fill-opacity="1" opacity="1" stroke="none" stroke-opacity="0" transform="matrix(1,0,0,1,85,19)"><path d="M2.00026e-16,23 L6.57227e-16,7 C7.67698e-16,3.13401 3.13401,0 7,0 C10.866,0 14,3.13401 14,7 L14,23 C14,26.866 10.866,30 7,30 C3.13401,30 8.95545e-17,26.866 2.00026e-16,23 z" fill-rule="nonzero" vector-effect="none"/></g><defs><clipPath id="clip371"><path d="M-7,-15 L7,-15 L7,15 L-7,15 L-7,-15 z"/></clipPath></defs><g clip-path="url(#clip371)" fill="none" opacity="1" stroke="#000000" stroke-linecap="butt" stroke-linejoin="miter" stroke-miterlimit="2" stroke-opacity="1" stroke-width="1" transform="matrix(1,0,0,1,92,34)"><text fill="#000000" fill-opacity="1" font-family="Arial" font-size="10" font-style="normal" font-weight="400" stroke="none" textLength="5.54688" x="-2.76563" xml:space="preserve" y="3.5">4</text></g><defs><clipPath id="clip376"><path d="M-85.5,-19.5 L229.57,-19.5 L229.57,295.5 L-85.5,295.5 L-85.5,-19.5 z"/></clipPath></defs><g clip-path="url(#clip376)" fill="none" opacity="1" stroke="#000000" stroke-linecap="butt" stroke-linejoin="miter" stroke-miterlimit="2" stroke-opacity="1" stroke-width="1" transform="matrix(1,0,0,1,85.5,19.5)"><path d="M2.00026e-16,23 L6.57227e-16,7 C7.67698e-16,3.13401 3.13401,0 7,0 C10.866,0 14,3.13401 14,7 L14,23 C14,26.866 10.866,30 7,30 C3.13401,30 8.95545e-17,26.866 2.00026e-16,23 z" fill-rule="nonzero" vector-effect="none"/></g><defs><clipPath id="clip382"><path d="M0,0 L49,0 L49,15 L0,15 L0,0 z"/></clipPath></defs><g clip-path="url(#clip382)" fill="none" opacity="1" stroke="#000000" stroke-linecap="square" stroke-linejoin="bevel" stroke-opacity="1" stroke-width="1" transform="matrix(1,0,0,1,67.5391,2)"><text fill="#000000" fill-opacity="1" font-family="Arial" font-size="10" font-style="normal" font-weight="400" stroke="none" textLength="47.1563" x="1" xml:space="preserve" y="11">Frequency</text></g><defs><clipPath id="clip390"><path d="M-12,-172 L303.07,-172 L303.07,143 L-12,143 L-12,-172 z"/></clipPath></defs><g clip-path="url(#clip390)" fill="#ffffff" fill-opacity="1" opacity="1" stroke="none" stroke-opacity="0" transform="matrix(1,0,0,1,12,172)"><path d="M23,14 L7,14 C3.13401,14 0,10.866 0,7 C0,3.13401 3.13401,0 7,0 L23,0 C26.866,0 30,3.13401 30,7 C30,10.866 26.866,14 23,14 z" fill-rule="nonzero" vector-effect="none"/></g><defs><clipPath id="clip394"><path d="M-15,-7 L15,-7 L15,7 L-15,7 L-15,-7 z"/></clipPath></defs><g clip-path="url(#clip394)" fill="none" opacity="1" stroke="#000000" stroke-linecap="butt" stroke-linejoin="miter" stroke-miterlimit="2" stroke-opacity="1" stroke-width="1" transform="matrix(1,0,0,1,27,179)"><text fill="#000000" fill-opacity="1" font-family="Arial" font-size="10" font-style="normal" font-weight="400" stroke="none" textLength="5.54688" x="-2.76563" xml:space="preserve" y="3.5">6</text></g><defs><clipPath id="clip399"><path d="M-12.5,-172.5 L302.57,-172.5 L302.57,142.5 L-12.5,142.5 L-12.5,-172.5 z"/></clipPath></defs><g clip-path="url(#clip399)" fill="none" opacity="1" stroke="#000000" stroke-linecap="butt" stroke-linejoin="miter" stroke-miterlimit="2" stroke-opacity="1" stroke-width="1" transform="matrix(1,0,0,1,12.5,172.5)"><path d="M23,14 L7,14 C3.13401,14 0,10.866 0,7 C0,3.13401 3.13401,0 7,0 L23,0 C26.866,0 30,3.13401 30,7 C30,10.866 26.866,14 23,14 z" fill-rule="nonzero" vector-effect="none"/></g><defs><clipPath id="clip405"><path d="M0,0 L49,0 L49,15 L0,15 L0,0 z"/></clipPath></defs><g clip-path="url(#clip405)" fill="none" opacity="1" stroke="#000000" stroke-linecap="square" stroke-linejoin="bevel" stroke-opacity="1" stroke-width="1" transform="matrix(1,0,0,1,2.83594,188)"><text fill="#000000" fill-opacity="1" font-family="Arial" font-size="10" font-style="normal" font-weight="400" stroke="none" textLength="46.5625" x="1" xml:space="preserve" y="11">LBL Offset</text></g><defs><clipPath id="clip413"><path d="M-12,-227 L303.07,-227 L303.07,88 L-12,88 L-12,-227 z"/></clipPath></defs><g clip-path="url(#clip413)" fill="#ffffff" fill-opacity="1" opacity="1" stroke="none" stroke-opacity="0" transform="matrix(1,0,0,1,12,227)"><path d="M23,14 L7,14 C3.13401,14 0,10.866 0,7 C0,3.13401 3.13401,0 7,0 L23,0 C26.866,0 30,3.13401 30,7 C30,10.866 26.866,14 23,14 z" fill-rule="nonzero" vector-effect="none"/></g><defs><clipPath id="clip417"><path d="M-15,-7 L15,-7 L15,7 L-15,7 L-15,-7 z"/></clipPath></defs><g clip-path="url(#clip417)" fill="none" opacity="1" stroke="#000000" stroke-linecap="butt" stroke-linejoin="miter" stroke-miterlimit="2" stroke-opacity="1" stroke-width="1" transform="matrix(1,0,0,1,27,234)"><text fill="#000000" fill-opacity="1" font-family="Arial" font-size="10" font-style="normal" font-weight="400" stroke="none" textLength="5.54688" x="-2.76563" xml:space="preserve" y="3.5">7</text></g><defs><clipPath id="clip422"><path d="M-12.5,-227.5 L302.57,-227.5 L302.57,87.5 L-12.5,87.5 L-12.5,-227.5 z"/></clipPath></defs><g clip-path="url(#clip422)" fill="none" opacity="1" stroke="#000000" stroke-linecap="butt" stroke-linejoin="miter" stroke-miterlimit="2" stroke-opacity="1" stroke-width="1" transform="matrix(1,0,0,1,12.5,227.5)"><path d="M23,14 L7,14 C3.13401,14 0,10.866 0,7 C0,3.13401 3.13401,0 7,0 L23,0 C26.866,0 30,3.13401 30,7 C30,10.866 26.866,14 23,14 z" fill-rule="nonzero" vector-effect="none"/></g><defs><clipPath id="clip428"><path d="M0,0 L50,0 L50,15 L0,15 L0,0 z"/></clipPath></defs><g clip-path="url(#clip428)" fill="none" opacity="1" stroke="#000000" stroke-linecap="square" stroke-linejoin="bevel" stroke-opacity="1" stroke-width="1" transform="matrix(1,0,0,1,2,243)"><text fill="#000000" fill-opacity="1" font-family="Arial" font-size="10" font-style="normal" font-weight="400" stroke="none" textLength="48.2344" x="1" xml:space="preserve" y="11">LML Offset</text></g><defs><clipPath id="clip436"><path d="M-12,-282 L303.07,-282 L303.07,33 L-12,33 L-12,-282 z"/></clipPath></defs><g clip-path="url(#clip436)" fill="#ffffff" fill-opacity="1" opacity="1" stroke="none" stroke-opacity="0" transform="matrix(1,0,0,1,12,282)"><path d="M23,14 L7,14 C3.13401,14 0,10.866 0,7 C0,3.13401 3.13401,0 7,0 L23,0 C26.866,0 30,3.13401 30,7 C30,10.866 26.866,14 23,14 z" fill-rule="nonzero" vector-effect="none"/></g><defs><clipPath id="clip440"><path d="M-15,-7 L15,-7 L15,7 L-15,7 L-15,-7 z"/></clipPath></defs><g clip-path="url(#clip440)" fill="none" opacity="1" stroke="#000000" stroke-linecap="butt" stroke-linejoin="miter" stroke-miterlimit="2" stroke-opacity="1" stroke-width="1" transform="matrix(1,0,0,1,27,289)"><text fill="#000000" fill-opacity="1" font-family="Arial" font-size="10" font-style="normal" font-weight="400" stroke="none" textLength="5.54688" x="-2.76563" xml:space="preserve" y="3.5">8</text></g><defs><clipPath id="clip445"><path d="M-12.5,-282.5 L302.57,-282.5 L302.57,32.5 L-12.5,32.5 L-12.5,-282.5 z"/></clipPath></defs><g clip-path="url(#clip445)" fill="none" opacity="1" stroke="#000000" stroke-linecap="butt" stroke-linejoin="miter" stroke-miterlimit="2" stroke-opacity="1" stroke-width="1" transform="matrix(1,0,0,1,12.5,282.5)"><path d="M23,14 L7,14 C3.13401,14 0,10.866 0,7 C0,3.13401 3.13401,0 7,0 L23,0 C26.866,0 30,3.13401 30,7 C30,10.866 26.866,14 23,14 z" fill-rule="nonzero" vector-effect="none"/></g><defs><clipPath id="clip451"><path d="M0,0 L48,0 L48,15 L0,15 L0,0 z"/></clipPath></defs><g clip-path="url(#clip451)" fill="none" opacity="1" stroke="#000000" stroke-linecap="square" stroke-linejoin="bevel" stroke-opacity="1" stroke-width="1" transform="matrix(1,0,0,1,3.11719,298)"><text fill="#000000" fill-opacity="1" font-family="Arial" font-size="10" font-style="normal" font-weight="400" stroke="none" textLength="46" x="1" xml:space="preserve" y="11">LFL Offset</text></g><defs><clipPath id="clip459"><path d="M42.2344,179 L-272.836,179 L-272.836,-136 L42.2344,-136 L42.2344,179 z"/></clipPath></defs><g clip-path="url(#clip459)" fill="#000000" fill-opacity="1" opacity="1" stroke="none" stroke-opacity="0" transform="matrix(-1,1.22465e-16,-1.22465e-16,-1,42.2344,179)"><path d="M0,0 L-8,-4 L-8,4 L0,0 z" fill-rule="nonzero" vector-effect="none"/></g><defs><clipPath id="clip462"><path d="M812.883,341 L1127.95,341 L1127.95,656 L812.883,656 L812.883,341 z"/></clipPath></defs><g clip-path="url(#clip462)" fill="none" opacity="1" stroke="#000000" stroke-linecap="butt" stroke-linejoin="miter" stroke-miterlimit="2" stroke-opacity="1" stroke-width="1" transform="matrix(1,0,0,1,-812.883,-341)"><path d="M925.383,520.5 L863.383,520.5" fill-rule="evenodd" vector-effect="none"/></g><defs><clipPath id="clip465"><path d="M42.2344,289 L-272.836,289 L-272.836,-26 L42.2344,-26 L42.2344,289 z"/></clipPath></defs><g clip-path="url(#clip465)" fill="#000000" fill-opacity="1" opacity="1" stroke="none" stroke-opacity="0" transform="matrix(-1,1.22465e-16,-1.22465e-16,-1,42.2344,289)"><path d="M0,0 L-8,-4 L-8,4 L0,0 z" fill-rule="nonzero" vector-effect="none"/></g><defs><clipPath id="clip468"><path d="M812.883,341 L1127.95,341 L1127.95,656 L812.883,656 L812.883,341 z"/></clipPath></defs><g clip-path="url(#clip468)" fill="none" opacity="1" stroke="#000000" stroke-linecap="butt" stroke-linejoin="miter" stroke-miterlimit="2" stroke-opacity="1" stroke-width="1" transform="matrix(1,0,0,1,-812.883,-341)"><path d="M925.383,630.5 L863.383,630.5" fill-rule="evenodd" vector-effect="none"/></g><defs><clipPath id="clip471"><path d="M42.2344,234 L-272.836,234 L-272.836,-81 L42.2344,-81 L42.2344,234 z"/></clipPath></defs><g clip-path="url(#clip471)" fill="#000000" fill-opacity="1" opacity="1" stroke="none" stroke-opacity="0" transform="matrix(-1,1.22465e-16,-1.22465e-16,-1,42.2344,234)"><path d="M0,0 L-8,-4 L-8,4 L0,0 z" fill-rule="nonzero" vector-effect="none"/></g><defs><clipPath id="clip474"><path d="M812.883,341 L1127.95,341 L1127.95,656 L812.883,656 L812.883,341 z"/></clipPath></defs><g clip-path="url(#clip474)" fill="none" opacity="1" stroke="#000000" stroke-linecap="butt" stroke-linejoin="miter" stroke-miterlimit="2" stroke-opacity="1" stroke-width="1" transform="matrix(1,0,0,1,-812.883,-341)"><path d="M925.383,575.5 L863.383,575.5" fill-rule="evenodd" vector-effect="none"/></g><defs><clipPath id="clip477"><path d="M-272,-289 L43.0703,-289 L43.0703,26 L-272,26 L-272,-289 z"/></clipPath></defs><g clip-path="url(#clip477)" fill="#000000" fill-opacity="1" opacity="1" stroke="none" stroke-opacity="0" transform="matrix(1,0,0,1,272,289)"><path d="M0,0 L-8,-4 L-8,4 L0,0 z" fill-rule="nonzero" vector-effect="none"/></g><defs><clipPath id="clip480"><path d="M812.883,341 L1127.95,341 L1127.95,656 L812.883,656 L812.883,341 z"/></clipPath></defs><g clip-path="url(#clip480)" fill="none" opacity="1" stroke="#000000" stroke-linecap="butt" stroke-linejoin="miter" stroke-miterlimit="2" stroke-opacity="1" stroke-width="1" transform="matrix(1,0,0,1,-812.883,-341)"><path d="M1015.38,630.5 L1077.38,630.5" fill-rule="evenodd" vector-effect="none"/></g><defs><clipPath id="clip483"><path d="M-272,-179 L43.0703,-179 L43.0703,136 L-272,136 L-272,-179 z"/></clipPath></defs><g clip-path="url(#clip483)" fill="#000000" fill-opacity="1" opacity="1" stroke="none" stroke-opacity="0" transform="matrix(1,0,0,1,272,179)"><path d="M0,0 L-8,-4 L-8,4 L0,0 z" fill-rule="nonzero" vector-effect="none"/></g><defs><clipPath id="clip486"><path d="M812.883,341 L1127.95,341 L1127.95,656 L812.883,656 L812.883,341 z"/></clipPath></defs><g clip-path="url(#clip486)" fill="none" opacity="1" stroke="#000000" stroke-linecap="butt" stroke-linejoin="miter" stroke-miterlimit="2" stroke-opacity="1" stroke-width="1" transform="matrix(1,0,0,1,-812.883,-341)"><path d="M1015.38,520.5 L1077.38,520.5" fill-rule="evenodd" vector-effect="none"/></g><defs><clipPath id="clip489"><path d="M49.1172,-217.117 L49.1172,97.9531 L-265.883,97.9531 L-265.883,-217.117 L49.1172,-217.117 z"/></clipPath></defs><g clip-path="url(#clip489)" fill="#000000" fill-opacity="1" opacity="1" stroke="none" stroke-opacity="0" transform="matrix(6.12323e-17,-1,1,6.12323e-17,217.117,49.1172)"><path d="M0,0 L-8,-4 L-8,4 L0,0 z" fill-rule="nonzero" vector-effect="none"/></g><defs><clipPath id="clip492"><path d="M812.883,341 L1127.95,341 L1127.95,656 L812.883,656 L812.883,341 z"/></clipPath></defs><g clip-path="url(#clip492)" fill="none" opacity="1" stroke="#000000" stroke-linecap="butt" stroke-linejoin="miter" stroke-miterlimit="2" stroke-opacity="1" stroke-width="1" transform="matrix(1,0,0,1,-812.883,-341)"><path d="M1030.38,440.5 L1030.38,398.5" fill-rule="evenodd" vector-effect="none"/></g><defs><clipPath id="clip495"><path d="M-272,-234 L43.0703,-234 L43.0703,81 L-272,81 L-272,-234 z"/></clipPath></defs><g clip-path="url(#clip495)" fill="#000000" fill-opacity="1" opacity="1" stroke="none" stroke-opacity="0" transform="matrix(1,0,0,1,272,234)"><path d="M0,0 L-8,-4 L-8,4 L0,0 z" fill-rule="nonzero" vector-effect="none"/></g><defs><clipPath id="clip498"><path d="M812.883,341 L1127.95,341 L1127.95,656 L812.883,656 L812.883,341 z"/></clipPath></defs><g clip-path="url(#clip498)" fill="none" opacity="1" stroke="#000000" stroke-linecap="butt" stroke-linejoin="miter" stroke-miterlimit="2" stroke-opacity="1" stroke-width="1" transform="matrix(1,0,0,1,-812.883,-341)"><path d="M1015.38,575.5 L1077.38,575.5" fill-rule="evenodd" vector-effect="none"/></g><defs><clipPath id="clip501"><path d="M49.1172,-92.1172 L49.1172,222.953 L-265.883,222.953 L-265.883,-92.1172 L49.1172,-92.1172 z"/></clipPath></defs><g clip-path="url(#clip501)" fill="#000000" fill-opacity="1" opacity="1" stroke="none" stroke-opacity="0" transform="matrix(6.12323e-17,-1,1,6.12323e-17,92.1172,49.1172)"><path d="M0,0 L-8,-4 L-8,4 L0,0 z" fill-rule="nonzero" vector-effect="none"/></g><defs><clipPath id="clip504"><path d="M812.883,341 L1127.95,341 L1127.95,656 L812.883,656 L812.883,341 z"/></clipPath></defs><g clip-path="url(#clip504)" fill="none" opacity="1" stroke="#000000" stroke-linecap="butt" stroke-linejoin="miter" stroke-miterlimit="2" stroke-opacity="1" stroke-width="1" transform="matrix(1,0,0,1,-812.883,-341)"><path d="M905.383,440.5 L905.383,398.5" fill-rule="evenodd" vector-effect="none"/></g></g><!--generated on windows @ 2023-08-28 04:53:18 Mitteleuropäische Sommerzeit--></svg>
